<?xml version="1.0" encoding="utf-8"?>
<!-- Generator: Adobe Illustrator 16.0.0, SVG Export Plug-In . SVG Version: 6.00 Build 0)  -->
<!DOCTYPE svg PUBLIC "-//W3C//DTD SVG 1.1//EN" "http://www.w3.org/Graphics/SVG/1.1/DTD/svg11.dtd">
<svg version="1.1" id="Capa_1" xmlns="http://www.w3.org/2000/svg" xmlns:xlink="http://www.w3.org/1999/xlink" x="0px" y="0px"
	 width="801.167px" height="259px" viewBox="0 0 801.167 259" enable-background="new 0 0 801.167 259" xml:space="preserve">
<path fill="#83BDDD" d="M462.005,67.768L445.998,87.53L375.842,0.915L244.617,162.931h294.461L462.005,67.768z M369.972,41.984
	l-35.998,26.348l41.717-51.503l29.713,39.05L369.972,41.984z M435.911,115.229l26.522-32.745l18.892,24.826l-22.527-8.835
	L435.911,115.229z"/>
<g>
	<defs>
		<rect id="SVGID_3_" x="-140.102" y="-258.489" width="1081.102" height="770.69"/>
	</defs>
	<clipPath id="SVGID_2_">
		<use xlink:href="#SVGID_3_"  overflow="visible"/>
	</clipPath>
	<path clip-path="url(#SVGID_2_)" fill="#003775" d="M97.349,209.361H32.56c-0.615,0.028-1.197,0.107-1.752,0.229
		c-0.768,0.187-1.46,0.463-2.073,0.83c-1.599,1.045-2.398,2.751-2.398,5.119c0,0.614,0.075,1.198,0.229,1.752
		c0.154,0.8,0.43,1.491,0.83,2.076c1.045,1.598,2.75,2.396,5.12,2.396H83.7c3.689,0,6.946,1.138,9.775,3.412
		c3.504,2.768,5.256,6.656,5.256,11.667c0,3.66-1.122,6.916-3.365,9.775c-2.767,3.505-6.658,5.257-11.667,5.257H0.373v-8.853H83.7
		c2.367,0,4.072-0.801,5.118-2.398c0.398-0.583,0.691-1.273,0.876-2.075c0.121-0.553,0.183-1.123,0.183-1.706
		c0-2.398-0.8-4.12-2.397-5.166c-0.585-0.368-1.261-0.646-2.029-0.828c-0.584-0.122-1.169-0.2-1.751-0.23H32.516
		c-4.98,0-8.87-1.753-11.667-5.257c-2.244-2.829-3.365-6.088-3.365-9.775c0-5.011,1.752-8.9,5.256-11.668
		c2.859-2.273,6.117-3.412,9.777-3.412h64.833V209.361z"/>
	<polygon clip-path="url(#SVGID_2_)" fill="#003775" points="168.138,221.857 197.372,245.975 191.748,252.799 159.331,226.053 
		127.191,241.408 127.191,251.829 118.337,251.829 118.337,200.507 127.191,200.507 127.191,231.586 193.454,199.954 
		197.281,207.931 	"/>
	<rect x="218.361" y="200.601" clip-path="url(#SVGID_2_)" fill="#003775" width="8.854" height="51.276"/>
	<path clip-path="url(#SVGID_2_)" fill="#003775" d="M257.056,235.553v16.323h-8.854v-40.394c0-3.626,1.276-6.455,3.828-8.485
		c2.09-1.66,4.472-2.489,7.146-2.489h54.736c4.273,0,8.069,1.321,11.391,3.965c4.088,3.229,6.131,7.747,6.131,13.559
		c0,4.272-1.321,8.068-3.964,11.388c-2.029,2.555-4.551,4.307-7.563,5.258l8.347,8.854l3.043,3.181l-6.409,6.088l-3.044-3.183
		l-10.606-11.206l-2.675-2.857H257.056z M313.912,226.699c3.381,0,5.81-1.199,7.285-3.598c0.522-0.829,0.893-1.781,1.106-2.858
		c0.093-0.431,0.155-0.844,0.186-1.245c0.062-0.338,0.092-0.66,0.092-0.967c0-3.383-1.2-5.812-3.597-7.288
		c-0.831-0.49-1.784-0.858-2.859-1.105c-0.43-0.093-0.846-0.154-1.246-0.185c-0.337-0.029-0.66-0.061-0.967-0.094h-54.736
		c-0.921,0-1.536,0.294-1.843,0.877c-0.124,0.215-0.199,0.447-0.231,0.692l-0.045,0.321v15.449H313.912z"/>
	<rect x="352.423" y="200.601" clip-path="url(#SVGID_2_)" fill="#003775" width="8.854" height="51.276"/>
	<path clip-path="url(#SVGID_2_)" fill="#003775" d="M391.118,230.941v7.056c0,1.382,0.49,2.566,1.475,3.55
		c0.985,0.984,2.167,1.477,3.551,1.477h70.229v8.853h-70.229c-3.845,0-7.118-1.353-9.821-4.059c-2.706-2.704-4.059-5.978-4.059-9.82
		v-23.61c0-3.811,1.353-7.069,4.059-9.775c2.703-2.736,5.976-4.104,9.821-4.104h70.229v8.854h-70.229
		c-1.384,0-2.566,0.491-3.551,1.475c-0.985,0.985-1.475,2.166-1.475,3.551v7.7h75.256v8.854H391.118z"/>
	<path clip-path="url(#SVGID_2_)" fill="#003775" d="M573.129,200.83v47.08v-0.092c0,0.433-0.046,0.83-0.139,1.199
		c-0.246,0.984-0.767,1.783-1.567,2.396c-0.799,0.617-1.706,0.924-2.722,0.924c-0.799,0-1.566-0.216-2.306-0.646l0.139,0.092
		l-70.321-39.887v39.887h-8.852v-47.402c0-1.689,0.721-2.967,2.167-3.828c1.475-0.859,2.95-0.875,4.425-0.045l70.321,39.841V200.83
		H573.129z"/>
	<path clip-path="url(#SVGID_2_)" fill="#003775" d="M678.227,251.876h-70.229c-3.842,0-7.117-1.353-9.822-4.059
		c-2.706-2.703-4.058-5.978-4.058-9.82v-23.61c0-3.811,1.353-7.069,4.058-9.775c2.706-2.736,5.98-4.104,9.822-4.104h51.733v8.854
		h-51.733c-1.382,0-2.568,0.491-3.551,1.475c-0.983,0.985-1.476,2.166-1.476,3.551v23.61c0,1.382,0.493,2.566,1.476,3.55
		c0.983,0.984,2.169,1.477,3.551,1.477h70.229V251.876z"/>
	<path clip-path="url(#SVGID_2_)" fill="#003775" d="M707.79,230.941v7.056c0,1.382,0.492,2.566,1.475,3.55
		c0.984,0.984,2.167,1.477,3.551,1.477l87.709,0.254v8.854l-87.709-0.255c-3.844,0-7.117-1.353-9.823-4.059
		c-2.704-2.704-4.058-5.978-4.058-9.82v-23.61c0-3.811,1.354-7.069,4.058-9.775c2.706-2.736,5.979-4.104,9.823-4.104h70.229v8.854
		h-70.229c-1.384,0-2.567,0.491-3.551,1.475c-0.983,0.985-1.475,2.166-1.475,3.551v7.7h75.255v8.854H707.79z"/>
</g>
</svg>
